<svg id="Layer_1" data-name="Layer 1" xmlns="http://www.w3.org/2000/svg" viewBox="0 0 200 200" ><defs><style>.cls-1{fill:#27423a;}.cls-2{fill:#bb8a61;}.cls-3,.cls-4{fill:#fff;}.cls-4{font-size:8px;font-family:Raleway-Light, Raleway;letter-spacing:0.01em;}.cls-5{letter-spacing:0.04em;}</style></defs><title>Artboard 1</title><rect class="cls-1" width="200" height="200"/><circle class="cls-2" cx="161.73" cy="106.95" r="2.54"/><circle class="cls-2" cx="31.89" cy="84.47" r="5.07"/><path class="cls-3" d="M73.58,89.79a5.07,5.07,0,0,1-4.46,4.46.51.51,0,0,1-.58-.5v-4a.5.5,0,0,1,.5-.5h4A.49.49,0,0,1,73.58,89.79Z"/><path class="cls-3" d="M153.41,105a5.07,5.07,0,0,1-4.46,4.46.51.51,0,0,1-.58-.5v-4a.5.5,0,0,1,.5-.5h4A.51.51,0,0,1,153.41,105Z"/><path class="cls-3" d="M168.9,99.38a.51.51,0,0,0-.58.5V109a.51.51,0,0,0,.58.5,5.07,5.07,0,0,0,0-10.08Z"/><path class="cls-3" d="M168.9,89.25a5.07,5.07,0,0,1,4.46,4.46.51.51,0,0,1-.5.58h-4a.5.5,0,0,1-.5-.5v-4A.51.51,0,0,1,168.9,89.25Z"/><path class="cls-3" d="M42.48,74.38a1,1,0,0,0-1.12,1V93.55a1,1,0,0,0,1.12,1,10.14,10.14,0,0,0,0-20.16Z"/><path class="cls-3" d="M79.36,94.27h0v10.14a5.07,5.07,0,0,0,4.5,5,.51.51,0,0,0,.58-.5V94.29h0V89.74a.51.51,0,0,0-.58-.5A5.07,5.07,0,0,0,79.36,94.27Z"/><path class="cls-3" d="M93.57,94.27a5.07,5.07,0,0,0-4.5-5,.51.51,0,0,0-.58.5v4.53h0V109a.51.51,0,0,0,.58.5,5.07,5.07,0,0,0,4.5-5V94.27Z"/><path class="cls-3" d="M59.9,84.14a.5.5,0,0,0-.5.5V109a.5.5,0,0,0,.5.5H64a.5.5,0,0,0,.5-.5V84.64a.5.5,0,0,0-.5-.5Z"/><path class="cls-3" d="M50.27,108.49v-8.14a1,1,0,0,0-1-1H36.74a10.15,10.15,0,0,0-10.08,9,1,1,0,0,0,1,1.12H49.27A1,1,0,0,0,50.27,108.49Z"/><path class="cls-3" d="M99.32,94.29V109a.5.5,0,0,0,.5.5h4.07a.5.5,0,0,0,.5-.5V89.74a.51.51,0,0,0-.58-.5A5.07,5.07,0,0,0,99.32,94.29Z"/><path class="cls-3" d="M109,89.25a.51.51,0,0,0-.58.5V109a.5.5,0,0,0,.5.5H113a.5.5,0,0,0,.5-.5V94.29A5.07,5.07,0,0,0,109,89.25Z"/><path class="cls-3" d="M153.44,94.28h0a5.07,5.07,0,0,0-4.5-5,.51.51,0,0,0-.58.5v4.53h0v4.53a.51.51,0,0,0,.58.5,5.07,5.07,0,0,0,4.5-5h0Z"/><path class="cls-3" d="M159.2,94.27h0a5.07,5.07,0,0,0,4.5,5,.51.51,0,0,0,.58-.5V94.29h0V89.74a.51.51,0,0,0-.58-.5A5.07,5.07,0,0,0,159.2,94.27Z"/><path class="cls-3" d="M119.28,94.29V109a.51.51,0,0,0,.51.51h4.05a.51.51,0,0,0,.51-.51V89.75a.52.52,0,0,0-.59-.51A5.07,5.07,0,0,0,119.28,94.29Z"/><path class="cls-3" d="M129,89.25a.52.52,0,0,0-.59.51V109a.51.51,0,0,0,.51.51H133a.51.51,0,0,0,.51-.51V94.29A5.07,5.07,0,0,0,129,89.25Z"/><path class="cls-3" d="M139.24,94.29v10.13a5.07,5.07,0,0,0,4.5,5,.51.51,0,0,0,.58-.5V89.74a.51.51,0,0,0-.58-.5A5.07,5.07,0,0,0,139.24,94.29Z"/><text class="cls-4" transform="translate(26.82 120.64)">C<tspan class="cls-5" x="4.76" y="0">omment Agir pour le Climat ?</tspan></text></svg>